STARTFONT 2.1
COMMENT 16x16 bushu font
COMMENT named "Bushu 16-dots Matrix Character Patterns for Display Devices"
FONT -gray-fixed-medium-r-normal--16-150-75-75-C-160-bushu.5.1999-0
SIZE 6 78 78
FONTBOUNDINGBOX 16 16 0 2
STARTPROPERTIES 19
FONT_ASCENT 14
FONT_DESCENT 2
DEFAULT_CHAR 255 
COPYRIGHT "from Sergey Poznyakoff, by permission to use"
FONTNAME_REGISTRY ""
FOUNDRY "gjdict"
FAMILY_NAME "Fixed"
WEIGHT_NAME "Medium"
SLANT "R"
SETWIDTH_NAME "Normal"
ADD_STYLE_NAME ""
PIXEL_SIZE 16
POINT_SIZE 150
RESOLUTION_X 75
RESOLUTION_Y 75
SPACING "C"
AVERAGE_WIDTH 160
CHARSET_REGISTRY "gjdict.5.1999"
CHARSET_ENCODING "0"
ENDPROPERTIES
CHARS 245
STARTCHAR 1
ENCODING 1
SWIDTH 96 0
DWIDTH 16 0
BBX 16 16 0 -2
BITMAP
0000
0000
0000
0000
0000
0000
0000
000c
7ffe
0000
0000
0000
0000
0000
0000
0000
ENDCHAR
STARTCHAR 2
ENCODING 2
SWIDTH 96 0
DWIDTH 16 0
BBX 16 16 0 -2
BITMAP
0000
01c0
0180
0180
0180
0180
0180
0180
0180
0180
0180
0180
0180
0180
0180
0180
ENDCHAR
STARTCHAR 3
ENCODING 3
SWIDTH 96 0
DWIDTH 16 0
BBX 16 16 0 -2
BITMAP
0000
0000
0000
0800
0600
0380
01c0
00e0
00f0
0070
0060
0000
0000
0000
0000
0000
ENDCHAR
STARTCHAR 4
ENCODING 4
SWIDTH 96 0
DWIDTH 16 0
BBX 16 16 0 -2
BITMAP
0000
01c0
0180
0180
0180
0180
0180
0180
0180
0300
0300
0300
0600
0600
0c00
3000
ENDCHAR
STARTCHAR 5
ENCODING 5
SWIDTH 96 0
DWIDTH 16 0
BBX 16 16 0 -2
BITMAP
0000
0018
1ffc
0038
0070
00e0
01c0
0380
0700
0e04
1c04
1806
180e
1ffc
0ff0
0000
ENDCHAR
STARTCHAR 6
ENCODING 6
SWIDTH 96 0
DWIDTH 16 0
BBX 16 16 0 -2
BITMAP
01c0
0180
0180
0180
0180
0180
0180
0180
0180
0180
0180
0180
0180
0180
0f80
0300
ENDCHAR
STARTCHAR 7
ENCODING 7
SWIDTH 96 0
DWIDTH 16 0
BBX 16 16 0 -2
BITMAP
0000
0000
0018
3ffc
0000
0000
0000
0000
0000
0000
0000
0006
ffff
0000
0000
0000
ENDCHAR
STARTCHAR 8
ENCODING 8
SWIDTH 96 0
DWIDTH 16 0
BBX 16 16 0 -2
BITMAP
0000
0000
0000
0000
01c0
0180
0180
0180
0186
ffff
0000
0000
0000
0000
0000
0000
ENDCHAR
STARTCHAR 9
ENCODING 9
SWIDTH 96 0
DWIDTH 16 0
BBX 16 16 0 -2
BITMAP
01c0
0180
0180
0180
0180
0180
0180
0340
0340
0620
0620
0c30
0c18
181f
300e
c004
ENDCHAR
STARTCHAR 11
ENCODING 11
SWIDTH 96 0
DWIDTH 16 0
BBX 16 16 0 -2
BITMAP
0180
3fc0
0180
0180
0180
0180
0180
0340
0340
0620
0620
0c30
0c18
181f
300e
c004
ENDCHAR
STARTCHAR 12
ENCODING 12
SWIDTH 96 0
DWIDTH 16 0
BBX 16 16 0 -2
BITMAP
0000
0000
0080
0440
0740
0640
0640
0c20
0c20
0c20
0c30
1818
1818
100c
200f
c006
ENDCHAR
STARTCHAR 13
ENCODING 13
SWIDTH 96 0
DWIDTH 16 0
BBX 16 16 0 -2
BITMAP
4004
7fff
6006
6006
6006
6006
6006
6006
6006
6006
6006
6006
6006
6006
603e
600c
ENDCHAR
STARTCHAR 14
ENCODING 14
SWIDTH 96 0
DWIDTH 16 0
BBX 16 16 0 -2
BITMAP
0000
0000
0000
0000
0000
2000
200c
7ffe
600c
c008
0010
0000
0000
0000
0000
0000
ENDCHAR
STARTCHAR 15
ENCODING 15
SWIDTH 96 0
DWIDTH 16 0
BBX 16 16 0 -2
BITMAP
0100
00c0
00c0
0000
0010
0020
0060
00c0
01c0
0f80
0380
0180
0180
0180
01c0
00c0
ENDCHAR
STARTCHAR 16
ENCODING 16
SWIDTH 96 0
DWIDTH 16 0
BBX 16 16 0 -2
BITMAP
1040
1fe0
18c0
18c0
18c0
18c0
18c0
18c0
18c0
18c0
18c0
18c4
18c4
10c6
20fe
c07c
ENDCHAR
STARTCHAR 17
ENCODING 17
SWIDTH 96 0
DWIDTH 16 0
BBX 16 16 0 -2
BITMAP
7007
6006
6006
6006
6006
6006
6006
6006
6006
6006
6006
6006
6006
6006
7ffe
6006
ENDCHAR
STARTCHAR 18
ENCODING 18
SWIDTH 96 0
DWIDTH 16 0
BBX 16 16 0 -2
BITMAP
000c
fffe
030c
030c
030c
030c
030c
030c
060c
0618
0618
0c18
0c18
1830
11f0
6060
ENDCHAR
STARTCHAR 19
ENCODING 19
SWIDTH 96 0
DWIDTH 16 0
BBX 16 16 0 -2
BITMAP
0380
0300
030c
7ffe
030c
030c
030c
030c
030c
060c
060c
060c
0c0c
0818
30f8
e030
ENDCHAR
STARTCHAR 20
ENCODING 20
SWIDTH 96 0
DWIDTH 16 0
BBX 16 16 0 -2
BITMAP
1800
180c
1ffe
300c
200c
c00c
000c
000c
000c
000c
000c
000c
0018
0018
01f0
0060
ENDCHAR
STARTCHAR 21
ENCODING 21
SWIDTH 96 0
DWIDTH 16 0
BBX 16 16 0 -2
BITMAP
3800
3000
3000
3010
3030
3078
30f0
31e0
3380
3600
3c04
f004
3004
3006
3ffe
1ffc
ENDCHAR
STARTCHAR 22
ENCODING 22
SWIDTH 96 0
DWIDTH 16 0
BBX 16 16 0 -2
BITMAP
4006
7fff
6000
6000
6000
6000
6000
6000
6000
6000
6000
6000
6000
6006
7fff
6000
ENDCHAR
STARTCHAR 23
ENCODING 23
SWIDTH 96 0
DWIDTH 16 0
BBX 16 16 0 -2
BITMAP
0006
ffff
3000
3000
3000
3000
3000
3000
3000
3000
3000
3000
3000
3800
3fff
1fff
ENDCHAR
STARTCHAR 24
ENCODING 24
SWIDTH 96 0
DWIDTH 16 0
BBX 16 16 0 -2
BITMAP
01c0
0180
0180
0180
0180
0186
ffff
0180
0180
0180
0180
0180
0180
0180
0180
0180
ENDCHAR
STARTCHAR 25
ENCODING 25
SWIDTH 96 0
DWIDTH 16 0
BBX 16 16 0 -2
BITMAP
0700
0600
0600
0600
0600
0600
0780
06e0
0670
0630
0600
0600
0600
0600
0600
0600
ENDCHAR
STARTCHAR 26
ENCODING 26
SWIDTH 96 0
DWIDTH 16 0
BBX 16 16 0 -2
BITMAP
0818
0ffc
0c18
0c18
0c18
0c18
0c18
0c18
0c18
0c18
0cf8
0c30
0c00
0c00
0c00
0c00
ENDCHAR
STARTCHAR 27
ENCODING 27
SWIDTH 96 0
DWIDTH 16 0
BBX 16 16 0 -2
BITMAP
0000
2006
3fff
3000
3000
3000
3000
3000
3000
3000
3000
6000
6000
4000
c000
0000
ENDCHAR
STARTCHAR 28
ENCODING 28
SWIDTH 96 0
DWIDTH 16 0
BBX 16 16 0 -2
BITMAP
0000
0100
01c0
0180
0180
0300
0300
0300
0600
0610
0c08
080c
107e
7f86
7e06
3000
ENDCHAR
STARTCHAR 29
ENCODING 29
SWIDTH 96 0
DWIDTH 16 0
BBX 16 16 0 -2
BITMAP
0000
0000
0006
ffff
0830
0830
0c70
0460
06e0
03c0
0380
03c0
06e0
0c7f
383e
e00c
ENDCHAR
STARTCHAR 30
ENCODING 30
SWIDTH 96 0
DWIDTH 16 0
BBX 16 16 0 -2
BITMAP
0000
0000
0000
1010
1ffc
1818
1818
1818
1818
1818
1818
1ff8
1818
0000
0000
0000
ENDCHAR
STARTCHAR 31
ENCODING 31
SWIDTH 96 0
DWIDTH 16 0
BBX 16 16 0 -2
BITMAP
4006
7fff
6006
6006
6006
6006
6006
6006
6006
6006
6006
6006
6006
6006
7ffe
6006
ENDCHAR
STARTCHAR 32
ENCODING 32
SWIDTH 96 0
DWIDTH 16 0
BBX 16 16 0 -2
BITMAP
01c0
0180
0180
0180
0180
0198
3ffc
0180
0180
0180
0180
0180
0180
0180
0186
ffff
ENDCHAR
STARTCHAR 33
ENCODING 33
SWIDTH 96 0
DWIDTH 16 0
BBX 16 16 0 -2
BITMAP
01c0
0180
0180
0180
0180
0186
ffff
0180
0180
0180
0180
0180
0180
0180
0198
3ffc
ENDCHAR
STARTCHAR 34
ENCODING 34
SWIDTH 96 0
DWIDTH 16 0
BBX 16 16 0 -2
BITMAP
0400
0700
0e00
0c30
1ff8
1830
2c70
c460
06e0
03c0
0380
03c0
06e0
0c7f
383e
e00c
ENDCHAR
STARTCHAR 35
ENCODING 35
SWIDTH 96 0
DWIDTH 16 0
BBX 16 16 0 -2
BITMAP
0400
0700
3e00
6c30
7ff8
9830
2c70
c460
06e0
03c0
0380
03c0
06e0
0c7f
383e
e00c
ENDCHAR
STARTCHAR 36
ENCODING 36
SWIDTH 96 0
DWIDTH 16 0
BBX 16 16 0 -2
BITMAP
0100
01c0
018c
03fe
031c
061c
1a18
01b8
01b0
0070
0060
00c0
0180
0600
3800
0000
ENDCHAR
STARTCHAR 37
ENCODING 37
SWIDTH 96 0
DWIDTH 16 0
BBX 16 16 0 -2
BITMAP
01c0
0180
0180
0180
0180
0182
ffff
0180
0380
0340
0740
0660
0c38
181e
300f
e006
ENDCHAR
STARTCHAR 38
ENCODING 38
SWIDTH 96 0
DWIDTH 16 0
BBX 16 16 0 -2
BITMAP
0700
0600
0600
0c06
ffff
0c60
1860
1860
38c0
36c0
3180
01e0
0738
0e1c
380e
e006
ENDCHAR
STARTCHAR 39
ENCODING 39
SWIDTH 96 0
DWIDTH 16 0
BBX 16 16 0 -2
BITMAP
0010
3ff8
0070
0060
00c0
0180
0182
ffff
0180
0180
0180
0180
0180
0180
0f80
0300
ENDCHAR
STARTCHAR 40
ENCODING 40
SWIDTH 96 0
DWIDTH 16 0
BBX 16 16 0 -2
BITMAP
0000
0000
0000
0000
01c0
0180
1184
3ffe
600c
c010
0000
0000
0000
0000
0000
0000
ENDCHAR
STARTCHAR 41
ENCODING 41
SWIDTH 96 0
DWIDTH 16 0
BBX 16 16 0 -2
BITMAP
0038
0030
0030
0032
ffff
0030
0030
1030
0c30
0630
0630
0030
0030
0030
01f0
0060
ENDCHAR
STARTCHAR 42
ENCODING 42
SWIDTH 96 0
DWIDTH 16 0
BBX 16 16 0 -2
BITMAP
0180
0180
0180
0180
0180
1190
1988
398c
3186
6187
4183
8183
0180
0180
0f80
0300
ENDCHAR
STARTCHAR 43
ENCODING 43
SWIDTH 96 0
DWIDTH 16 0
BBX 16 16 0 -2
BITMAP
0380
0300
0300
0300
0302
ffff
06c0
06c0
0ec0
0cc0
1cc0
18c2
38c2
30c3
60c3
c07e
ENDCHAR
STARTCHAR 44
ENCODING 44
SWIDTH 96 0
DWIDTH 16 0
BBX 16 16 0 -2
BITMAP
1006
1fff
1806
1806
1806
1806
1ffe
1806
1800
1800
1800
1800
3000
3000
6000
c000
ENDCHAR
STARTCHAR 45
ENCODING 45
SWIDTH 96 0
DWIDTH 16 0
BBX 16 16 0 -2
BITMAP
01c0
0180
0180
7187
6186
6186
6186
6186
6186
7ffe
6186
0180
0300
0300
0600
3800
ENDCHAR
STARTCHAR 46
ENCODING 46
SWIDTH 96 0
DWIDTH 16 0
BBX 16 16 0 -2
BITMAP
0000
01c0
0180
0180
0180
7187
6186
6186
6186
6186
6186
6186
6186
6186
7ffe
6006
ENDCHAR
STARTCHAR 47
ENCODING 47
SWIDTH 96 0
DWIDTH 16 0
BBX 16 16 0 -2
BITMAP
0000
1c07
18e6
18c6
18c6
18c6
18c6
18c6
18c6
18c6
18c6
30c6
30c6
6006
4006
8006
ENDCHAR
STARTCHAR 48
ENCODING 48
SWIDTH 96 0
DWIDTH 16 0
BBX 16 16 0 -2
BITMAP
0000
000c
7ffe
0180
0180
0180
0180
0180
0180
0180
0180
0180
0186
ffff
0000
0000
ENDCHAR
STARTCHAR 49
ENCODING 49
SWIDTH 96 0
DWIDTH 16 0
BBX 16 16 0 -2
BITMAP
000c
7ffe
000c
000c
000c
400c
7ffc
600c
6000
6000
6000
6002
6002
7007
7fff
3ffe
ENDCHAR
STARTCHAR 50
ENCODING 50
SWIDTH 96 0
DWIDTH 16 0
BBX 16 16 0 -2
BITMAP
01c0
0180
0180
4186
7fff
6186
6186
6186
6186
6186
6186
6186
619e
018c
0180
0180
ENDCHAR
STARTCHAR 51
ENCODING 51
SWIDTH 96 0
DWIDTH 16 0
BBX 16 16 0 -2
BITMAP
0004
7ffe
0180
0180
0180
0180
0182
ffff
0180
0180
0180
0180
0180
0180
0180
0180
ENDCHAR
STARTCHAR 52
ENCODING 52
SWIDTH 96 0
DWIDTH 16 0
BBX 16 16 0 -2
BITMAP
0100
0380
0700
0620
0c38
5870
3060
18e0
1cc0
0d80
0310
0608
0cfc
7f86
3803
2000
ENDCHAR
STARTCHAR 53
ENCODING 53
SWIDTH 96 0
DWIDTH 16 0
BBX 16 16 0 -2
BITMAP
00e0
00c0
20c2
3fff
3000
3000
3000
3000
3000
3000
3000
6000
6000
4000
c000
0000
ENDCHAR
STARTCHAR 54
ENCODING 54
SWIDTH 96 0
DWIDTH 16 0
BBX 16 16 0 -2
BITMAP
0c00
fe00
0c00
1800
3000
7c00
0c00
4c00
5800
5800
7000
2000
3000
6800
4fff
87fe
ENDCHAR
STARTCHAR 55
ENCODING 55
SWIDTH 96 0
DWIDTH 16 0
BBX 16 16 0 -2
BITMAP
0e70
0c60
0c60
0c60
0c60
0c62
ffff
0c60
0c60
0c60
0c60
1860
1860
3060
6060
c060
ENDCHAR
STARTCHAR 56
ENCODING 56
SWIDTH 96 0
DWIDTH 16 0
BBX 16 16 0 -2
BITMAP
0390
0318
0308
0302
ffff
0300
0300
0380
0180
01c0
00c0
00e2
0072
003f
001f
0006
ENDCHAR
STARTCHAR 57
ENCODING 57
SWIDTH 96 0
DWIDTH 16 0
BBX 16 16 0 -2
BITMAP
000c
7ffe
000c
200c
3ffc
300c
3000
3006
7fff
6006
6006
0006
000e
000c
00fc
0038
ENDCHAR
STARTCHAR 58
ENCODING 58
SWIDTH 96 0
DWIDTH 16 0
BBX 16 16 0 -2
BITMAP
0700
0600
0600
0618
0ffc
0c18
0c38
0c30
1c30
1830
1ff0
3060
3060
00c0
00c2
ffff
ENDCHAR
STARTCHAR 59
ENCODING 59
SWIDTH 96 0
DWIDTH 16 0
BBX 16 16 0 -2
BITMAP
0000
0020
0070
01e0
0780
3c10
0038
00f0
03c0
1e08
001c
0038
00f0
03c0
3e00
0000
ENDCHAR
STARTCHAR 60
ENCODING 60
SWIDTH 96 0
DWIDTH 16 0
BBX 16 16 0 -2
BITMAP
0040
0070
00e0
01c0
07a0
0e38
3870
00e0
03c0
0f80
3980
0180
0180
0180
0180
0180
ENDCHAR
STARTCHAR 61
ENCODING 61
SWIDTH 96 0
DWIDTH 16 0
BBX 16 16 0 -2
BITMAP
0380
0300
0300
0300
0300
0b40
0b60
1b60
3b00
3300
0300
0300
0300
0300
0300
0300
ENDCHAR
STARTCHAR 62
ENCODING 62
SWIDTH 96 0
DWIDTH 16 0
BBX 16 16 0 -2
BITMAP
01c0
0180
0180
01a0
0ff0
0180
0180
0190
01e0
0f80
0580
0180
0180
0180
0f80
0300
ENDCHAR
STARTCHAR 63
ENCODING 63
SWIDTH 96 0
DWIDTH 16 0
BBX 16 16 0 -2
BITMAP
0080
0060
0060
0400
0310
0320
0060
00c0
01c0
0f80
0380
0180
0180
0180
01c0
00c0
ENDCHAR
STARTCHAR 64
ENCODING 64
SWIDTH 96 0
DWIDTH 16 0
BBX 16 16 0 -2
BITMAP
0040
0460
02c0
0180
0380
04c0
00c0
01e0
0160
0260
0460
0060
0060
0040
07c0
0180
ENDCHAR
STARTCHAR 65
ENCODING 65
SWIDTH 96 0
DWIDTH 16 0
BBX 16 16 0 -2
BITMAP
0000
0000
0000
0000
0000
1c70
1862
ffff
1860
1860
0000
0000
0000
0000
0000
0000
ENDCHAR
STARTCHAR 66
ENCODING 66
SWIDTH 96 0
DWIDTH 16 0
BBX 16 16 0 -2
BITMAP
4000
3000
1800
1800
0000
0000
1800
fc00
1800
1800
1800
1800
1800
3800
efff
43fe
ENDCHAR
STARTCHAR 67
ENCODING 67
SWIDTH 96 0
DWIDTH 16 0
BBX 16 16 0 -2
BITMAP
008c
00fe
00cc
00cc
00c8
00d8
00d0
00c8
00c4
00c6
00c6
00c6
00c6
00de
00cc
00c0
ENDCHAR
STARTCHAR 68
ENCODING 68
SWIDTH 96 0
DWIDTH 16 0
BBX 16 16 0 -2
BITMAP
4600
7f00
6600
6600
6400
6c00
6800
6400
6200
6300
6300
6300
6f00
6600
6000
6000
ENDCHAR
STARTCHAR 69
ENCODING 69
SWIDTH 96 0
DWIDTH 16 0
BBX 16 16 0 -2
BITMAP
0100
00c0
0060
0770
0630
0600
2600
2608
2606
6606
6613
c613
c618
07f8
03f0
0000
ENDCHAR
STARTCHAR 70
ENCODING 70
SWIDTH 96 0
DWIDTH 16 0
BBX 16 16 0 -2
BITMAP
0730
0618
0618
0602
ffff
0600
0604
070e
031c
03b8
01f0
00e2
01f2
03bb
0e1f
7806
ENDCHAR
STARTCHAR 71
ENCODING 71
SWIDTH 96 0
DWIDTH 16 0
BBX 16 16 0 -2
BITMAP
0006
ffff
0000
200c
3ffe
300c
300c
300c
3ffc
3000
3000
3000
6000
6000
4000
c000
ENDCHAR
STARTCHAR 72
ENCODING 72
SWIDTH 96 0
DWIDTH 16 0
BBX 16 16 0 -2
BITMAP
001c
03f8
3f80
0180
0184
7ffe
0180
0180
0182
ffff
0180
0180
0180
0180
0f80
0300
ENDCHAR
STARTCHAR 73
ENCODING 73
SWIDTH 96 0
DWIDTH 16 0
BBX 16 16 0 -2
BITMAP
01c0
0180
0186
ffff
0180
0198
3ffc
0818
0c38
0470
06e0
03c0
07e0
0e7f
383e
e00c
ENDCHAR
STARTCHAR 74
ENCODING 74
SWIDTH 96 0
DWIDTH 16 0
BBX 16 16 0 -2
BITMAP
01c0
0180
0186
01ff
0180
0198
7ffc
0818
0c38
0470
06e0
03c0
07e0
0e7f
383e
e00c
ENDCHAR
STARTCHAR 75
ENCODING 75
SWIDTH 96 0
DWIDTH 16 0
BBX 16 16 0 -2
BITMAP
01c0
0180
0186
ffff
0830
0830
0c70
0460
06e0
03c0
0380
03c0
06e0
0c7f
383e
e00c
ENDCHAR
STARTCHAR 76
ENCODING 76
SWIDTH 96 0
DWIDTH 16 0
BBX 16 16 0 -2
BITMAP
0070
1860
0c60
0660
0660
6060
3060
1860
1860
0066
007f
07e0
fc60
0060
0060
0060
ENDCHAR
STARTCHAR 77
ENCODING 77
SWIDTH 96 0
DWIDTH 16 0
BBX 16 16 0 -2
BITMAP
0038
21fc
3fc0
3000
3006
3fff
30c0
30c0
30c0
30c0
30c0
20c0
60c0
40c0
c0c0
00c0
ENDCHAR
STARTCHAR 78
ENCODING 78
SWIDTH 96 0
DWIDTH 16 0
BBX 16 16 0 -2
BITMAP
01c0
0180
0186
ffff
0300
0300
0318
03fc
0718
0618
0618
0c18
0c38
1830
30f0
e060
ENDCHAR
STARTCHAR 79
ENCODING 79
SWIDTH 96 0
DWIDTH 16 0
BBX 16 16 0 -2
BITMAP
000c
7ffe
18c0
18c0
18c0
18c6
ffff
0180
0180
01f0
0360
0362
0662
0c63
387f
e03e
ENDCHAR
STARTCHAR 80
ENCODING 80
SWIDTH 96 0
DWIDTH 16 0
BBX 16 16 0 -2
BITMAP
2018
3ffc
3018
3018
3018
3018
3018
3ff8
3018
3018
3018
3018
3018
3018
3ff8
3018
ENDCHAR
STARTCHAR 81
ENCODING 81
SWIDTH 96 0
DWIDTH 16 0
BBX 16 16 0 -2
BITMAP
4006
7fff
6006
6006
6006
6006
6066
7ff6
6006
6006
6006
6006
6006
6006
7ffe
6006
ENDCHAR
STARTCHAR 82
ENCODING 82
SWIDTH 96 0
DWIDTH 16 0
BBX 16 16 0 -2
BITMAP
1018
1ffc
1818
1818
1818
1ff8
1818
1818
1818
1ff8
1818
1818
3018
3018
60f8
c030
ENDCHAR
STARTCHAR 83
ENCODING 83
SWIDTH 96 0
DWIDTH 16 0
BBX 16 16 0 -2
BITMAP
01c0
0180
0180
0186
ffff
07a0
07a0
0db0
0d98
1998
198c
318f
6187
c182
0180
0180
ENDCHAR
STARTCHAR 84
ENCODING 84
SWIDTH 96 0
DWIDTH 16 0
BBX 16 16 0 -2
BITMAP
0e00
0c06
1ffe
1806
31cc
6188
c190
0180
0380
0340
0740
0660
0c38
181e
300f
e006
ENDCHAR
STARTCHAR 85
ENCODING 85
SWIDTH 96 0
DWIDTH 16 0
BBX 16 16 0 -2
BITMAP
00e0
00c0
00c0
00c0
1cc0
18cc
18fe
18c0
18c0
18c0
18c0
18c0
18c0
18c6
ffff
0000
ENDCHAR
STARTCHAR 86
ENCODING 86
SWIDTH 96 0
DWIDTH 16 0
BBX 16 16 0 -2
BITMAP
0000
0018
3ffc
0180
0300
0308
07fc
0618
0c30
3330
0160
00c0
0180
0300
0c00
3000
ENDCHAR
STARTCHAR 87
ENCODING 87
SWIDTH 96 0
DWIDTH 16 0
BBX 16 16 0 -2
BITMAP
0860
0ff0
0c60
0c60
1c7e
183e
3000
6018
1ffc
0418
0630
0360
01e0
0770
1c3f
f00c
ENDCHAR
STARTCHAR 88
ENCODING 88
SWIDTH 96 0
DWIDTH 16 0
BBX 16 16 0 -2
BITMAP
0000
0018
1ff8
1998
1998
1998
199a
ffff
3330
3330
3330
3330
7ffc
6060
01e0
0040
ENDCHAR
STARTCHAR 89
ENCODING 89
SWIDTH 96 0
DWIDTH 16 0
BBX 16 16 0 -2
BITMAP
3870
3060
3060
3063
3267
3f7c
3070
3060
3060
3060
3060
3062
3062
3e63
f87f
e03e
ENDCHAR
STARTCHAR 90
ENCODING 90
SWIDTH 96 0
DWIDTH 16 0
BBX 16 16 0 -2
BITMAP
0038
01f0
3f80
0300
030c
7ffe
0300
0300
0306
ffff
0300
0300
0302
0303
03ff
01fe
ENDCHAR
STARTCHAR 91
ENCODING 91
SWIDTH 96 0
DWIDTH 16 0
BBX 16 16 0 -2
BITMAP
001c
20f8
3fc0
30c0
30c0
30c0
30c6
3fff
30c0
30e0
3060
3062
3072
3633
783f
e01e
ENDCHAR
STARTCHAR 92
ENCODING 92
SWIDTH 96 0
DWIDTH 16 0
BBX 16 16 0 -2
BITMAP
1800
180c
3ffe
3000
6ff0
c000
1ff8
0030
0030
0030
0030
0032
003a
001a
001f
000f
ENDCHAR
STARTCHAR 93
ENCODING 93
SWIDTH 96 0
DWIDTH 16 0
BBX 16 16 0 -2
BITMAP
01c0
0180
0180
0d82
fd87
0dce
0dd8
0de0
19a0
19b0
3198
219c
418f
8186
0780
0300
ENDCHAR
STARTCHAR 94
ENCODING 94
SWIDTH 96 0
DWIDTH 16 0
BBX 16 16 0 -2
BITMAP
01c0
0180
0180
0186
1186
1184
3188
6180
6180
0340
0340
0660
0630
181c
300f
c002
ENDCHAR
STARTCHAR 95
ENCODING 95
SWIDTH 96 0
DWIDTH 16 0
BBX 16 16 0 -2
BITMAP
003c
20f8
3f90
3010
3390
3310
3310
3310
3310
3310
3308
3308
730c
630e
4307
c306
ENDCHAR
STARTCHAR 96
ENCODING 96
SWIDTH 96 0
DWIDTH 16 0
BBX 16 16 0 -2
BITMAP
0400
0e40
1c30
381c
700e
c816
0818
0c38
0430
0660
02c0
0180
03e0
0678
1c3f
f00e
ENDCHAR
STARTCHAR 97
ENCODING 97
SWIDTH 96 0
DWIDTH 16 0
BBX 16 16 0 -2
BITMAP
1818
073c
01f0
01f0
03b8
0e1c
300c
0030
0c30
0470
06e0
03c0
07e0
0e7f
383e
e00c
ENDCHAR
STARTCHAR 98
ENCODING 98
SWIDTH 96 0
DWIDTH 16 0
BBX 16 16 0 -2
BITMAP
0e30
0c30
0c30
0c30
0c30
0ff0
0c30
0030
7ff0
0c30
0c30
0c30
1830
1830
3030
6030
ENDCHAR
STARTCHAR 99
ENCODING 99
SWIDTH 96 0
DWIDTH 16 0
BBX 16 16 0 -2
BITMAP
1ce0
18c0
18c0
18c6
1fff
1800
1800
1830
1ff8
1830
1830
3030
3030
6030
c030
0030
ENDCHAR
STARTCHAR 100
ENCODING 100
SWIDTH 96 0
DWIDTH 16 0
BBX 16 16 0 -2
BITMAP
000c
7ffe
0c30
0c30
0c30
0c30
0c36
ffff
00f0
01f0
03b0
0730
0e30
3830
e0f0
0060
ENDCHAR
STARTCHAR 101
ENCODING 101
SWIDTH 96 0
DWIDTH 16 0
BBX 16 16 0 -2
BITMAP
01c0
1980
1980
3998
3ffc
6180
c180
0180
0186
ffff
0180
0180
0180
0180
0180
0180
ENDCHAR
STARTCHAR 102
ENCODING 102
SWIDTH 96 0
DWIDTH 16 0
BBX 16 16 0 -2
BITMAP
01c0
0198
018c
018c
0180
0182
ffff
0180
0380
0340
0740
0660
0c38
181e
300f
e006
ENDCHAR
STARTCHAR 103
ENCODING 103
SWIDTH 96 0
DWIDTH 16 0
BBX 16 16 0 -2
BITMAP
0004
7ffe
0180
0180
0180
0180
0188
3ffc
0180
0180
0180
0180
0180
0182
ffff
0000
ENDCHAR
STARTCHAR 104
ENCODING 104
SWIDTH 96 0
DWIDTH 16 0
BBX 16 16 0 -2
BITMAP
01c0
0180
0180
01b0
1ff8
0030
0060
00c0
0180
03e0
05b0
19b0
0180
0180
0180
0180
ENDCHAR
STARTCHAR 105
ENCODING 105
SWIDTH 96 0
DWIDTH 16 0
BBX 16 16 0 -2
BITMAP
01c0
0180
0186
ffff
c186
c306
c606
cc66
d8e6
df16
c006
c006
c006
c006
c03e
c00c
ENDCHAR
STARTCHAR 106
ENCODING 106
SWIDTH 96 0
DWIDTH 16 0
BBX 16 16 0 -2
BITMAP
0382
0317
3ffc
0318
0332
ffff
00c0
0380
0e00
3800
e000
0000
0000
0000
0000
0000
ENDCHAR
STARTCHAR 107
ENCODING 107
SWIDTH 96 0
DWIDTH 16 0
BBX 16 16 0 -2
BITMAP
0460
07f0
0660
0660
0660
07e0
0660
0660
0660
07e0
0660
0660
0660
0460
0ce0
1840
ENDCHAR
STARTCHAR 108
ENCODING 108
SWIDTH 96 0
DWIDTH 16 0
BBX 16 16 0 -2
BITMAP
0000
0000
0000
0000
0000
1c70
1862
ffff
1860
1860
0000
0000
0000
0000
0000
0000
ENDCHAR
STARTCHAR 109
ENCODING 109
SWIDTH 96 0
DWIDTH 16 0
BBX 16 16 0 -2
BITMAP
4000
3800
1800
4000
3800
1800
0000
1800
fc00
1800
1800
1800
1800
3800
efff
43fe
ENDCHAR
STARTCHAR 110
ENCODING 110
SWIDTH 96 0
DWIDTH 16 0
BBX 16 16 0 -2
BITMAP
01c0
0180
0186
ffff
0100
01c8
2198
131c
0a38
0c30
0660
0640
0098
010c
1ffe
fc06
ENDCHAR
STARTCHAR 111
ENCODING 111
SWIDTH 96 0
DWIDTH 16 0
BBX 16 16 0 -2
BITMAP
000c
7ffe
0180
0180
0180
0180
0198
3ffc
0180
01b0
019c
018c
0180
0186
ffff
0000
ENDCHAR
STARTCHAR 112
ENCODING 112
SWIDTH 96 0
DWIDTH 16 0
BBX 16 16 0 -2
BITMAP
000c
207e
3fc8
3008
31c8
3188
3188
3188
3188
3184
3184
31a6
61a6
61f7
4f93
c403
ENDCHAR
STARTCHAR 113
ENCODING 113
SWIDTH 96 0
DWIDTH 16 0
BBX 16 16 0 -2
BITMAP
0006
ffff
0c00
0c00
0c30
0ff8
1830
1830
1a30
1b30
19b0
31b2
3032
3ff3
fe33
601e
ENDCHAR
STARTCHAR 114
ENCODING 114
SWIDTH 96 0
DWIDTH 16 0
BBX 16 16 0 -2
BITMAP
1c38
1830
1830
1832
ffff
1830
1830
1830
1830
1ff0
1830
1830
1830
1830
1ff0
1830
ENDCHAR
STARTCHAR 115
ENCODING 115
SWIDTH 96 0
DWIDTH 16 0
BBX 16 16 0 -2
BITMAP
01c0
1180
1980
198c
1ffe
3180
3180
6180
8198
3ffc
0180
0180
0180
0186
ffff
0000
ENDCHAR
STARTCHAR 116
ENCODING 116
SWIDTH 96 0
DWIDTH 16 0
BBX 16 16 0 -2
BITMAP
2006
3fff
3186
3186
3186
3ffe
3186
3186
3186
3ffe
3186
3186
2186
6186
419e
818c
ENDCHAR
STARTCHAR 117
ENCODING 117
SWIDTH 96 0
DWIDTH 16 0
BBX 16 16 0 -2
BITMAP
4006
7fff
6186
6186
6186
6186
6186
7ffe
6186
6186
6186
6186
6186
6186
7ffe
6006
ENDCHAR
STARTCHAR 118
ENCODING 118
SWIDTH 96 0
DWIDTH 16 0
BBX 16 16 0 -2
BITMAP
0006
7fff
0186
0184
1188
1d80
1998
19fc
1980
3180
3180
2980
2d80
4780
43ff
803e
ENDCHAR
STARTCHAR 119
ENCODING 119
SWIDTH 96 0
DWIDTH 16 0
BBX 16 16 0 -2
BITMAP
00e0
10c6
1fff
9800
d800
5800
1800
3800
d800
d800
9000
3000
2000
6000
c000
0000
ENDCHAR
STARTCHAR 120
ENCODING 120
SWIDTH 96 0
DWIDTH 16 0
BBX 16 16 0 -2
BITMAP
0000
0000
0000
0180
7f88
0258
6642
2c26
1830
301f
600e
c006
0000
0000
0000
0000
ENDCHAR
STARTCHAR 121
ENCODING 121
SWIDTH 96 0
DWIDTH 16 0
BBX 16 16 0 -2
BITMAP
0180
0380
220c
3ffe
300c
300c
300c
300c
3ffc
300c
300c
300c
300c
300c
3ffc
300c
ENDCHAR
STARTCHAR 122
ENCODING 122
SWIDTH 96 0
DWIDTH 16 0
BBX 16 16 0 -2
BITMAP
01c0
0180
2186
3fff
3186
3188
3180
3198
3ffc
3418
3630
2360
61e0
4770
9c3f
300c
ENDCHAR
STARTCHAR 123
ENCODING 123
SWIDTH 96 0
DWIDTH 16 0
BBX 16 16 0 -2
BITMAP
0000
1008
1ffc
1248
1248
1248
1248
1248
1248
1248
1248
1248
1248
124a
7fff
0000
ENDCHAR
STARTCHAR 124
ENCODING 124
SWIDTH 96 0
DWIDTH 16 0
BBX 16 16 0 -2
BITMAP
2018
3ffc
3018
3018
3018
3ff8
3018
3018
3018
3ff8
3018
3018
3018
3018
3ff8
3018
ENDCHAR
STARTCHAR 125
ENCODING 125
SWIDTH 96 0
DWIDTH 16 0
BBX 16 16 0 -2
BITMAP
000c
3ffe
0038
0660
0380
0106
ffff
01c6
03c8
03c0
06c0
0cc0
18c0
30c0
e3c0
0080
ENDCHAR
STARTCHAR 126
ENCODING 126
SWIDTH 96 0
DWIDTH 16 0
BBX 16 16 0 -2
BITMAP
1800
1818
3ffc
3180
6180
8180
0186
ffff
0380
0340
0740
0660
0c38
181e
300f
e006
ENDCHAR
STARTCHAR 127
ENCODING 127
SWIDTH 96 0
DWIDTH 16 0
BBX 16 16 0 -2
BITMAP
0006
ffff
0600
0600
0c00
0c00
180c
1ffe
3c0c
6c0c
cc0c
0c0c
0c0c
0c0c
0ffc
0c0c
ENDCHAR
STARTCHAR 128
ENCODING 128
SWIDTH 96 0
DWIDTH 16 0
BBX 16 16 0 -2
BITMAP
0018
3ffc
0000
0000
0000
0006
ffff
0180
1180
1998
398e
3187
6183
c183
0f80
0300
ENDCHAR
STARTCHAR 129
ENCODING 129
SWIDTH 96 0
DWIDTH 16 0
BBX 16 16 0 -2
BITMAP
01c0
0180
0186
ffff
c186
c306
c606
cc66
d8e6
df16
c006
c006
c006
c006
c03e
c00c
ENDCHAR
STARTCHAR 130
ENCODING 130
SWIDTH 96 0
DWIDTH 16 0
BBX 16 16 0 -2
BITMAP
007c
07f8
7f80
0180
0180
0186
ffff
07a0
0db0
0d98
1998
198c
318f
6187
c182
0180
ENDCHAR
STARTCHAR 131
ENCODING 131
SWIDTH 96 0
DWIDTH 16 0
BBX 16 16 0 -2
BITMAP
01c0
0180
4186
7fff
c006
c004
8848
0e40
0c60
1c20
1830
1838
301c
301f
600e
c004
ENDCHAR
STARTCHAR 132
ENCODING 132
SWIDTH 96 0
DWIDTH 16 0
BBX 16 16 0 -2
BITMAP
01c0
0180
0180
018c
7ffe
0010
101c
0818
0c18
0c30
0630
0620
0620
0640
0046
ffff
ENDCHAR
STARTCHAR 133
ENCODING 133
SWIDTH 96 0
DWIDTH 16 0
BBX 16 16 0 -2
BITMAP
000c
7ffe
18c0
18c0
18c0
18c0
18c6
ffff
0180
03f0
0360
0762
0e62
1c63
307f
c03e
ENDCHAR
STARTCHAR 134
ENCODING 134
SWIDTH 96 0
DWIDTH 16 0
BBX 16 16 0 -2
BITMAP
3870
3060
3060
3060
3263
3f66
3078
3060
3060
3060
3062
3062
3362
fe63
787f
603e
ENDCHAR
STARTCHAR 135
ENCODING 135
SWIDTH 96 0
DWIDTH 16 0
BBX 16 16 0 -2
BITMAP
01c0
0180
0180
0d82
fd87
0dce
0dd8
0de0
19a0
19b0
3198
219c
418f
8186
0780
0300
ENDCHAR
STARTCHAR 136
ENCODING 136
SWIDTH 96 0
DWIDTH 16 0
BBX 16 16 0 -2
BITMAP
000c
7ffe
0c30
0c30
0c30
0c30
0c36
ffff
00f0
01f0
03b0
0730
0e30
3830
e0f0
0060
ENDCHAR
STARTCHAR 137
ENCODING 137
SWIDTH 96 0
DWIDTH 16 0
BBX 16 16 0 -2
BITMAP
0000
0000
0000
0000
0000
8006
ffff
c446
c446
fffe
c006
0000
0000
0000
0000
0000
ENDCHAR
STARTCHAR 138
ENCODING 138
SWIDTH 96 0
DWIDTH 16 0
BBX 16 16 0 -2
BITMAP
01c0
0180
0180
01b0
1ff8
0030
0060
00c8
0198
03e0
05b0
1998
0198
0180
0180
0180
ENDCHAR
STARTCHAR 139
ENCODING 139
SWIDTH 96 0
DWIDTH 16 0
BBX 16 16 0 -2
BITMAP
1c38
1830
1830
3f7f
3c6c
6ccc
cd8c
0c0c
0c0c
0c0c
0c0c
0c0c
0c0c
0c0c
0c7c
0c18
ENDCHAR
STARTCHAR 140
ENCODING 140
SWIDTH 96 0
DWIDTH 16 0
BBX 16 16 0 -2
BITMAP
01c4
418e
318c
1998
19a0
0186
ffff
07a0
07a0
0db0
0d98
1998
198c
318f
6187
c182
ENDCHAR
STARTCHAR 141
ENCODING 141
SWIDTH 96 0
DWIDTH 16 0
BBX 16 16 0 -2
BITMAP
0100
01c8
2198
131c
0a38
0c30
0664
0682
fffb
6183
0983
0db0
1d9c
198e
3186
6186
ENDCHAR
STARTCHAR 142
ENCODING 142
SWIDTH 96 0
DWIDTH 16 0
BBX 16 16 0 -2
BITMAP
0800
0e00
0c18
1ffc
3180
4180
0186
ffff
0180
0180
398e
318c
318c
318c
3ffc
300c
ENDCHAR
STARTCHAR 143
ENCODING 143
SWIDTH 96 0
DWIDTH 16 0
BBX 16 16 0 -2
BITMAP
0000
0000
0000
0000
0000
8006
ffff
c446
c446
fffe
c006
0000
0000
0000
0000
0000
ENDCHAR
STARTCHAR 144
ENCODING 144
SWIDTH 96 0
DWIDTH 16 0
BBX 16 16 0 -2
BITMAP
0830
0670
0644
7ffe
0180
0180
0198
3ffc
0180
0180
0186
ffff
0180
0180
0180
0180
ENDCHAR
STARTCHAR 145
ENCODING 145
SWIDTH 96 0
DWIDTH 16 0
BBX 16 16 0 -2
BITMAP
0606
feff
0606
4646
2626
3636
3636
0606
0e0e
1e1e
3636
e6e6
4646
0606
3e3e
0c0c
ENDCHAR
STARTCHAR 146
ENCODING 146
SWIDTH 96 0
DWIDTH 16 0
BBX 16 16 0 -2
BITMAP
0382
0317
3ffc
0318
0332
ffff
00c0
0398
1ffc
3c00
f818
1ffc
1818
0038
01f0
0060
ENDCHAR
STARTCHAR 147
ENCODING 147
SWIDTH 96 0
DWIDTH 16 0
BBX 16 16 0 -2
BITMAP
000c
fffe
0380
820c
fffc
cccc
cccc
cccc
cccc
cccc
cccc
cccc
cccc
cccc
ccdc
c008
ENDCHAR
STARTCHAR 148
ENCODING 148
SWIDTH 96 0
DWIDTH 16 0
BBX 16 16 0 -2
BITMAP
01c0
018c
7ffe
0180
0198
3ffc
0180
0186
ffff
07a0
07b0
0db0
0d98
199f
318e
c184
ENDCHAR
STARTCHAR 149
ENCODING 149
SWIDTH 96 0
DWIDTH 16 0
BBX 16 16 0 -2
BITMAP
0006
ffff
1818
1818
1ff8
1818
1818
1818
1ff8
1818
1818
181f
1ff8
ff18
7018
4018
ENDCHAR
STARTCHAR 150
ENCODING 150
SWIDTH 96 0
DWIDTH 16 0
BBX 16 16 0 -2
BITMAP
01c0
018c
3ffe
018c
ffff
018c
3ffc
0180
018c
3ffe
0180
0186
ffff
0180
0180
0180
ENDCHAR
STARTCHAR 151
ENCODING 151
SWIDTH 96 0
DWIDTH 16 0
BBX 16 16 0 -2
BITMAP
01c0
4186
7fff
6186
6386
62c6
6666
6d36
6106
6386
62c6
6666
6c36
6006
603e
600c
ENDCHAR
STARTCHAR 152
ENCODING 152
SWIDTH 96 0
DWIDTH 16 0
BBX 16 16 0 -2
BITMAP
400c
7ffe
6180
6180
618c
7ffe
600c
600c
600c
7ffc
618c
6180
6180
6186
7fff
6000
ENDCHAR
STARTCHAR 153
ENCODING 153
SWIDTH 96 0
DWIDTH 16 0
BBX 16 16 0 -2
BITMAP
0380
420c
7ffc
600c
600c
600c
7ffc
600c
600c
600c
7ffc
600c
600c
600c
7ffc
600c
ENDCHAR
STARTCHAR 154
ENCODING 154
SWIDTH 96 0
DWIDTH 16 0
BBX 16 16 0 -2
BITMAP
0006
ffff
00c0
00c0
0098
010c
7ffe
3c06
21c0
0198
3ffc
0180
0180
0186
ffff
0000
ENDCHAR
STARTCHAR 155
ENCODING 155
SWIDTH 96 0
DWIDTH 16 0
BBX 16 16 0 -2
BITMAP
0700
4e06
787e
6006
6006
6006
6006
6c06
7e7e
6006
6006
6006
6006
6006
7ffe
6006
ENDCHAR
STARTCHAR 156
ENCODING 156
SWIDTH 96 0
DWIDTH 16 0
BBX 16 16 0 -2
BITMAP
0038
03f0
3f00
0300
0300
030c
fffe
0300
0300
4318
7ff8
6018
6018
6018
7ff8
6018
ENDCHAR
STARTCHAR 157
ENCODING 157
SWIDTH 96 0
DWIDTH 16 0
BBX 16 16 0 -2
BITMAP
200e
380c
300c
360c
7fff
66cc
c6cc
b6cc
1ccc
0ccc
0dff
180c
300c
600c
800c
000c
ENDCHAR
STARTCHAR 158
ENCODING 158
SWIDTH 96 0
DWIDTH 16 0
BBX 16 16 0 -2
BITMAP
1018
1ffc
1818
1b18
1998
1998
181a
ffff
1818
19d8
1998
1998
3198
3198
6078
c010
ENDCHAR
STARTCHAR 159
ENCODING 159
SWIDTH 96 0
DWIDTH 16 0
BBX 16 16 0 -2
BITMAP
2018
3ffc
3018
3018
3ff8
3018
3018
3ff8
3082
30c7
304e
3070
3338
fe1c
780f
6006
ENDCHAR
STARTCHAR 160
ENCODING 160
SWIDTH 96 0
DWIDTH 16 0
BBX 16 16 0 -2
BITMAP
0660
0ff0
1c60
30cc
fffe
318c
318c
318c
318c
3ffc
300c
3002
3002
3003
3fff
1ffe
ENDCHAR
STARTCHAR 161
ENCODING 161
SWIDTH 96 0
DWIDTH 16 0
BBX 16 16 0 -2
BITMAP
0808
0808
0808
4949
4949
4949
4949
4949
4949
7f7f
0808
1808
1008
3008
6008
c008
ENDCHAR
STARTCHAR 162
ENCODING 162
SWIDTH 96 0
DWIDTH 16 0
BBX 16 16 0 -2
BITMAP
00e0
00cc
00fe
00c0
10c6
1fff
1800
18e0
18c0
18cc
17fe
30c0
20c2
60c3
c0ff
007e
ENDCHAR
STARTCHAR 163
ENCODING 163
SWIDTH 96 0
DWIDTH 16 0
BBX 16 16 0 -2
BITMAP
01c0
0180
218c
3ffe
318c
318c
318c
318c
3ffc
318c
0180
0198
018c
fffe
7c06
6000
ENDCHAR
STARTCHAR 164
ENCODING 164
SWIDTH 96 0
DWIDTH 16 0
BBX 16 16 0 -2
BITMAP
01c0
0180
4206
7ffe
6666
6666
6666
6666
6666
6666
6666
6666
6666
6666
ffff
0000
ENDCHAR
STARTCHAR 165
ENCODING 165
SWIDTH 96 0
DWIDTH 16 0
BBX 16 16 0 -2
BITMAP
0c0c
0dfe
1800
1400
2600
ce06
1dff
1818
3818
7818
9818
1818
1818
1818
18f8
1830
ENDCHAR
STARTCHAR 166
ENCODING 166
SWIDTH 96 0
DWIDTH 16 0
BBX 16 16 0 -2
BITMAP
01c0
0180
0186
ffff
0380
0684
0e47
1c4e
2c78
cc60
0c70
0c38
0d9c
7f1f
3c0e
3004
ENDCHAR
STARTCHAR 167
ENCODING 167
SWIDTH 96 0
DWIDTH 16 0
BBX 16 16 0 -2
BITMAP
0006
ffff
0cc0
0cc0
8ccc
fffe
cccc
cccc
cccc
d8fc
f07c
c00c
c00c
c00c
fffc
c00c
ENDCHAR
STARTCHAR 168
ENCODING 168
SWIDTH 96 0
DWIDTH 16 0
BBX 16 16 0 -2
BITMAP
3ff8
3018
3018
3ff8
3018
3018
3ff8
3018
3018
3ff8
34d8
06c2
06c2
0ec3
1cff
f07e
ENDCHAR
STARTCHAR 169
ENCODING 169
SWIDTH 96 0
DWIDTH 16 0
BBX 16 16 0 -2
BITMAP
0660
0ff0
1c60
30ce
fffc
318c
318c
3ffc
318c
318c
3ffc
300c
200c
600c
403c
8018
ENDCHAR
STARTCHAR 170
ENCODING 170
SWIDTH 96 0
DWIDTH 16 0
BBX 16 16 0 -2
BITMAP
0010
1ff8
0002
ffff
0010
1ff8
0010
1ff8
0000
1818
1ff8
1818
1818
1818
1ff8
1818
ENDCHAR
STARTCHAR 171
ENCODING 171
SWIDTH 96 0
DWIDTH 16 0
BBX 16 16 0 -2
BITMAP
0460
0e38
1c1c
718c
0380
0640
0c30
381c
e00f
1018
1ff8
1818
1818
1818
1ff8
1818
ENDCHAR
STARTCHAR 172
ENCODING 172
SWIDTH 96 0
DWIDTH 16 0
BBX 16 16 0 -2
BITMAP
000c
7ffe
0000
1018
1ffc
1818
1818
1ff8
1818
0000
1010
0c38
0630
0660
0086
ffff
ENDCHAR
STARTCHAR 173
ENCODING 173
SWIDTH 96 0
DWIDTH 16 0
BBX 16 16 0 -2
BITMAP
0000
0006
ffff
0380
0f04
3c87
41ce
07d8
1ee0
f0e0
01d0
07d8
1edc
f0cf
07c6
0180
ENDCHAR
STARTCHAR 174
ENCODING 174
SWIDTH 96 0
DWIDTH 16 0
BBX 16 16 0 -2
BITMAP
0030
00e4
1f8e
04dc
0670
03c0
3e40
00e0
01a0
0770
3cf0
01b0
0730
3c30
01f0
0060
ENDCHAR
STARTCHAR 175
ENCODING 175
SWIDTH 96 0
DWIDTH 16 0
BBX 16 16 0 -2
BITMAP
1018
1ffc
1818
1818
1ff8
1818
1818
1ff8
1818
1818
1ff8
1818
0620
0e18
180c
600c
ENDCHAR
STARTCHAR 176
ENCODING 176
SWIDTH 96 0
DWIDTH 16 0
BBX 16 16 0 -2
BITMAP
01c0
0180
0198
3ffc
0180
0186
ffff
0660
2660
3e68
3664
6666
4c66
8c60
19e0
30c0
ENDCHAR
STARTCHAR 177
ENCODING 177
SWIDTH 96 0
DWIDTH 16 0
BBX 16 16 0 -2
BITMAP
01c0
0180
0198
3ffc
0180
0186
ffff
1180
1d80
1980
1998
31fc
2d80
4780
43ff
807e
ENDCHAR
STARTCHAR 178
ENCODING 178
SWIDTH 96 0
DWIDTH 16 0
BBX 16 16 0 -2
BITMAP
1818
1ffc
1818
1818
1818
1818
1ff8
1998
1180
1d80
1998
31fc
2d80
4780
43ff
807e
ENDCHAR
STARTCHAR 179
ENCODING 179
SWIDTH 96 0
DWIDTH 16 0
BBX 16 16 0 -2
BITMAP
0300
1218
1ffc
1818
1ff8
181a
1fff
181e
1ffc
ff38
7078
40d8
0318
0c18
30f8
4030
ENDCHAR
STARTCHAR 180
ENCODING 180
SWIDTH 96 0
DWIDTH 16 0
BBX 16 16 0 -2
BITMAP
01c0
018c
7ffe
0180
3ffc
318c
318c
3ffc
318c
318c
3ffc
318c
0186
ffff
0180
0180
ENDCHAR
STARTCHAR 181
ENCODING 181
SWIDTH 96 0
DWIDTH 16 0
BBX 16 16 0 -2
BITMAP
01c0
018c
7ffe
0830
0c30
0660
0646
ffff
0180
0180
018c
7ffe
0180
0180
0180
0180
ENDCHAR
STARTCHAR 182
ENCODING 182
SWIDTH 96 0
DWIDTH 16 0
BBX 16 16 0 -2
BITMAP
2006
3fff
3000
3018
37fc
3000
3006
3fff
3640
3642
3667
362c
6630
4698
df0f
0c06
ENDCHAR
STARTCHAR 183
ENCODING 183
SWIDTH 96 0
DWIDTH 16 0
BBX 16 16 0 -2
BITMAP
0ff0
0c30
0c30
0ff0
0c30
4006
7fff
6186
6186
6186
7ffe
6000
6002
6003
7fff
3ffe
ENDCHAR
STARTCHAR 184
ENCODING 184
SWIDTH 96 0
DWIDTH 16 0
BBX 16 16 0 -2
BITMAP
0006
ffff
0cc0
0cc0
8ccc
fffe
cccc
cccc
d8fc
f07c
c00c
fffc
c00c
c00c
fffc
c00c
ENDCHAR
STARTCHAR 185
ENCODING 185
SWIDTH 96 0
DWIDTH 16 0
BBX 16 16 0 -2
BITMAP
007c
07e0
7f84
218e
198c
0d98
0da0
0186
ffff
0db0
0d98
1998
198c
318f
6187
c182
ENDCHAR
STARTCHAR 186
ENCODING 186
SWIDTH 96 0
DWIDTH 16 0
BBX 16 16 0 -2
BITMAP
200c
3ffc
318c
318c
3ffc
318c
318c
3ffc
318c
0180
0198
3ffc
0180
0180
0186
ffff
ENDCHAR
STARTCHAR 187
ENCODING 187
SWIDTH 96 0
DWIDTH 16 0
BBX 16 16 0 -2
BITMAP
400c
7ffe
6180
6180
618c
7ffe
600c
600c
600c
7ffc
618c
6180
6180
6186
7fff
6000
ENDCHAR
STARTCHAR 188
ENCODING 188
SWIDTH 96 0
DWIDTH 16 0
BBX 16 16 0 -2
BITMAP
0700
4e06
787e
6006
6006
6006
6006
6c06
7e7e
6006
6006
6006
6006
6006
7ffe
6006
ENDCHAR
STARTCHAR 189
ENCODING 189
SWIDTH 96 0
DWIDTH 16 0
BBX 16 16 0 -2
BITMAP
200e
380c
300c
360c
7fff
66cc
c6cc
b6cc
1ccc
0ccc
0dff
180c
300c
600c
800c
000c
ENDCHAR
STARTCHAR 190
ENCODING 190
SWIDTH 96 0
DWIDTH 16 0
BBX 16 16 0 -2
BITMAP
01c0
0184
7ffe
0188
3ffc
0182
ffff
0610
0ff8
1c30
3c60
66c0
83c0
0ee0
387e
e01c
ENDCHAR
STARTCHAR 191
ENCODING 191
SWIDTH 96 0
DWIDTH 16 0
BBX 16 16 0 -2
BITMAP
0180
0380
07c0
0e60
1838
301e
eff7
0180
018c
7ffe
0190
199c
0db8
0da0
0186
ffff
ENDCHAR
STARTCHAR 192
ENCODING 192
SWIDTH 96 0
DWIDTH 16 0
BBX 16 16 0 -2
BITMAP
1008
1ffc
1810
1ff8
1810
1ff8
1800
1802
ffff
1904
198e
18d8
1860
1b30
7c1f
300e
ENDCHAR
STARTCHAR 193
ENCODING 193
SWIDTH 96 0
DWIDTH 16 0
BBX 16 16 0 -2
BITMAP
8643
ff7f
c663
c663
fe7f
c663
c663
fe7f
c003
c003
c003
c003
c003
c003
c01f
c006
ENDCHAR
STARTCHAR 194
ENCODING 194
SWIDTH 96 0
DWIDTH 16 0
BBX 16 16 0 -2
BITMAP
01c0
210c
3ffe
300c
300c
3ffc
3000
3ffc
300c
300c
3ffc
3180
0186
ffff
0180
0180
ENDCHAR
STARTCHAR 195
ENCODING 195
SWIDTH 96 0
DWIDTH 16 0
BBX 16 16 0 -2
BITMAP
01c0
018c
3ffe
018c
ffff
018c
3ffc
4188
218e
319c
33d0
0dc0
39b0
e19c
4f8f
0306
ENDCHAR
STARTCHAR 196
ENCODING 196
SWIDTH 96 0
DWIDTH 16 0
BBX 16 16 0 -2
BITMAP
0430
0e70
0c4c
1ffe
38c0
78c8
dffc
18c0
18c0
18c8
1ffc
18c0
18c0
18c6
1fff
1800
ENDCHAR
STARTCHAR 197
ENCODING 197
SWIDTH 96 0
DWIDTH 16 0
BBX 16 16 0 -2
BITMAP
000c
ffff
0180
4186
7fff
6186
69a6
6db6
6596
6186
69a6
6db6
6596
6186
61be
618c
ENDCHAR
STARTCHAR 198
ENCODING 198
SWIDTH 96 0
DWIDTH 16 0
BBX 16 16 0 -2
BITMAP
01c0
0184
7ffe
0188
3ffc
0182
ffff
1000
1ffc
180c
1ffc
180c
1ffc
180c
187c
1818
ENDCHAR
STARTCHAR 199
ENCODING 199
SWIDTH 96 0
DWIDTH 16 0
BBX 16 16 0 -2
BITMAP
0e70
0c60
0c66
0c7f
fc60
0c60
0c6c
fc7e
0c60
0c60
3c66
ec7f
c860
1860
1060
6060
ENDCHAR
STARTCHAR 200
ENCODING 200
SWIDTH 96 0
DWIDTH 16 0
BBX 16 16 0 -2
BITMAP
0100
0380
06c0
0c70
399c
e107
1ff0
1830
1ff0
1830
1ff4
188e
18d8
1960
1e3e
780c
ENDCHAR
STARTCHAR 201
ENCODING 201
SWIDTH 96 0
DWIDTH 16 0
BBX 16 16 0 -2
BITMAP
01c0
0186
ffff
0818
0660
03c0
1ef0
f83f
1ffe
1818
1818
1ff8
1818
3018
7018
c018
ENDCHAR
STARTCHAR 202
ENCODING 202
SWIDTH 96 0
DWIDTH 16 0
BBX 16 16 0 -2
BITMAP
0006
ffff
0300
4206
7fff
6666
6666
67e6
6666
6666
67e6
6666
6666
6666
7ffe
6006
ENDCHAR
STARTCHAR 203
ENCODING 203
SWIDTH 96 0
DWIDTH 16 0
BBX 16 16 0 -2
BITMAP
0e38
0c32
ffff
0c30
0c30
0ff0
218c
3ffe
318c
318c
3ffc
318c
0182
ffff
0180
0180
ENDCHAR
STARTCHAR 204
ENCODING 204
SWIDTH 96 0
DWIDTH 16 0
BBX 16 16 0 -2
BITMAP
0318
1ffc
0618
061a
ffff
0000
1ff8
1818
1ff8
0060
3ffe
0c60
0c62
ffff
0060
0060
ENDCHAR
STARTCHAR 205
ENCODING 205
SWIDTH 96 0
DWIDTH 16 0
BBX 16 16 0 -2
BITMAP
0738
0632
7e3f
0630
0630
0634
3e3e
0630
0630
0634
3e3e
0630
0630
0632
ffff
0000
ENDCHAR
STARTCHAR 206
ENCODING 206
SWIDTH 96 0
DWIDTH 16 0
BBX 16 16 0 -2
BITMAP
01c0
018c
7ffe
0830
0e30
0646
ffff
0018
1ffc
1818
1818
1ff8
1818
1818
1ff8
1818
ENDCHAR
STARTCHAR 207
ENCODING 207
SWIDTH 96 0
DWIDTH 16 0
BBX 16 16 0 -2
BITMAP
0006
ffff
0180
1118
1ffc
1818
1ff8
1818
1ff8
1818
1ff8
0400
0760
0e18
1c0e
700e
ENDCHAR
STARTCHAR 208
ENCODING 208
SWIDTH 96 0
DWIDTH 16 0
BBX 16 16 0 -2
BITMAP
400c
7ffe
604c
60ec
6f8c
610c
6fec
692c
692c
6fec
610c
610c
612c
63f5
5e17
c002
ENDCHAR
STARTCHAR 209
ENCODING 209
SWIDTH 96 0
DWIDTH 16 0
BBX 16 16 0 -2
BITMAP
0030
7ffa
0034
05bc
1db2
7988
19b5
fffb
19b0
19b4
19b8
19b4
39b2
31b8
619d
c187
ENDCHAR
STARTCHAR 210
ENCODING 210
SWIDTH 96 0
DWIDTH 16 0
BBX 16 16 0 -2
BITMAP
0100
0380
06c0
0c70
399c
e107
1ff0
1830
1ff0
1830
1ff4
188e
18d8
1960
1e3e
780c
ENDCHAR
STARTCHAR 211
ENCODING 211
SWIDTH 96 0
DWIDTH 16 0
BBX 16 16 0 -2
BITMAP
1008
1c1c
0c32
ffff
0180
230c
3ffe
300c
300c
3ffc
300c
300c
3ffc
300c
300c
3ffc
ENDCHAR
STARTCHAR 212
ENCODING 212
SWIDTH 96 0
DWIDTH 16 0
BBX 16 16 0 -2
BITMAP
0038
00f0
3fc0
0186
ffff
07a0
0fb0
1d9c
318e
dfff
1818
1818
1ff8
1818
1818
1ff8
ENDCHAR
STARTCHAR 213
ENCODING 213
SWIDTH 96 0
DWIDTH 16 0
BBX 16 16 0 -2
BITMAP
2008
3ffc
3180
3190
3ff8
3180
3190
3ff8
3180
3186
3fff
3006
4926
cdb6
8496
001c
ENDCHAR
STARTCHAR 214
ENCODING 214
SWIDTH 96 0
DWIDTH 16 0
BBX 16 16 0 -2
BITMAP
1ff8
1818
19f8
1998
599b
ffff
c002
dffa
1818
1ff8
1818
1ff8
1818
1818
1878
1830
ENDCHAR
STARTCHAR 215
ENCODING 215
SWIDTH 96 0
DWIDTH 16 0
BBX 16 16 0 -2
BITMAP
0180
0106
ffff
0000
1ff8
1818
1ff8
4006
7fff
6006
6ff6
6c36
6c36
6ff6
6006
600c
ENDCHAR
STARTCHAR 216
ENCODING 216
SWIDTH 96 0
DWIDTH 16 0
BBX 16 16 0 -2
BITMAP
2204
3f0e
340c
3e18
3032
3467
3e06
300c
3118
ffb1
3063
3203
6306
4f8c
f998
4070
ENDCHAR
STARTCHAR 217
ENCODING 217
SWIDTH 96 0
DWIDTH 16 0
BBX 16 16 0 -2
BITMAP
de7b
c423
de7b
c423
de7b
c003
c003
c003
c003
c003
c003
c003
c003
c003
c01f
c006
ENDCHAR
STARTCHAR 218
ENCODING 218
SWIDTH 96 0
DWIDTH 16 0
BBX 16 16 0 -2
BITMAP
0100
7087
6466
72c6
6996
63ce
6c66
6126
6086
7ffe
1800
183a
1fe2
1803
1fff
0ffe
ENDCHAR
STARTCHAR 219
ENCODING 219
SWIDTH 96 0
DWIDTH 16 0
BBX 16 16 0 -2
BITMAP
0018
3ffc
0000
1ff8
1818
1818
1ff8
0000
3ffc
324c
342c
37ec
318c
318c
31bc
3198
ENDCHAR
STARTCHAR 220
ENCODING 220
SWIDTH 96 0
DWIDTH 16 0
BBX 16 16 0 -2
BITMAP
0180
4306
7fff
6186
6186
7ffe
6186
6186
7ffe
66c8
06ca
0ed3
0cdc
18c2
30ff
e07e
ENDCHAR
STARTCHAR 221
ENCODING 221
SWIDTH 96 0
DWIDTH 16 0
BBX 16 16 0 -2
BITMAP
0318
1ffc
0618
061a
ffff
0000
1ff8
1818
1ff8
0060
3ffe
0c60
0c62
ffff
0060
0060
ENDCHAR
STARTCHAR 222
ENCODING 222
SWIDTH 96 0
DWIDTH 16 0
BBX 16 16 0 -2
BITMAP
0180
0104
7ffe
0830
0642
ffff
2000
3ffc
318c
3ffc
318c
3ffc
318e
0182
01ff
00fe
ENDCHAR
STARTCHAR 223
ENCODING 223
SWIDTH 96 0
DWIDTH 16 0
BBX 16 16 0 -2
BITMAP
0400
0600
0ff0
1860
308c
fffe
318c
318c
3ffc
318c
318c
3ffc
0000
2444
6666
c223
ENDCHAR
STARTCHAR 224
ENCODING 224
SWIDTH 96 0
DWIDTH 16 0
BBX 16 16 0 -2
BITMAP
0180
2118
3ffc
3018
3ff8
3018
3ff8
3002
3fff
3002
3fff
4003
4923
cdb3
8496
000c
ENDCHAR
STARTCHAR 225
ENCODING 225
SWIDTH 96 0
DWIDTH 16 0
BBX 16 16 0 -2
BITMAP
01c0
0186
01ff
0180
4186
7fff
6106
60a6
6466
72c6
6996
62ce
6466
6106
6086
7ffe
ENDCHAR
STARTCHAR 226
ENCODING 226
SWIDTH 96 0
DWIDTH 16 0
BBX 16 16 0 -2
BITMAP
00e0
20c2
3fff
3000
3226
3fff
3226
3226
3ffe
3000
3636
37bc
7630
6632
c7bf
1c1e
ENDCHAR
STARTCHAR 227
ENCODING 227
SWIDTH 96 0
DWIDTH 16 0
BBX 16 16 0 -2
BITMAP
01c0
0186
ffff
1188
1988
2b94
46c6
0c60
3b38
e7ef
0c66
3860
0740
01e0
0738
3c1c
ENDCHAR
STARTCHAR 228
ENCODING 228
SWIDTH 96 0
DWIDTH 16 0
BBX 16 16 0 -2
BITMAP
00c0
4186
7fff
6000
6208
6208
6fbf
6208
661c
671c
6aaa
6a2a
f249
c208
8208
0208
ENDCHAR
STARTCHAR 229
ENCODING 229
SWIDTH 96 0
DWIDTH 16 0
BBX 16 16 0 -2
BITMAP
0660
0ff0
1840
3ff8
d998
1ff8
1998
1ff8
0180
3ffc
318c
3ffc
318c
3ffd
0181
00ff
ENDCHAR
STARTCHAR 230
ENCODING 230
SWIDTH 96 0
DWIDTH 16 0
BBX 16 16 0 -2
BITMAP
0e38
0c30
7ffe
0c30
0c32
ffff
0180
3ffc
318c
3ffc
318c
3ffc
0820
0e1c
1c0e
7006
ENDCHAR
STARTCHAR 231
ENCODING 231
SWIDTH 96 0
DWIDTH 16 0
BBX 16 16 0 -2
BITMAP
0018
00f0
3f80
0100
ffff
0520
1918
e387
0ee0
3838
e10f
1930
07c0
1938
e107
0700
ENDCHAR
STARTCHAR 232
ENCODING 232
SWIDTH 96 0
DWIDTH 16 0
BBX 16 16 0 -2
BITMAP
0000
3ffc
2104
2104
3ffc
2104
2104
3ffc
0100
3ffc
0100
ffff
0000
2444
6666
c223
ENDCHAR
STARTCHAR 233
ENCODING 233
SWIDTH 96 0
DWIDTH 16 0
BBX 16 16 0 -2
BITMAP
2244
324c
1248
ffff
0910
1918
310c
ffff
2104
2544
2544
2544
2544
2544
2944
211c
ENDCHAR
STARTCHAR 234
ENCODING 234
SWIDTH 96 0
DWIDTH 16 0
BBX 16 16 0 -2
BITMAP
0080
1080
10fc
1080
1080
ffff
2424
2424
2a54
2004
3ffc
2424
2424
2a54
2004
3ffc
ENDCHAR
STARTCHAR 235
ENCODING 235
SWIDTH 96 0
DWIDTH 16 0
BBX 16 16 0 -2
BITMAP
0000
3ffc
2244
2244
3e7c
0240
7e7e
4242
4242
7e7e
4242
4242
7e7e
0201
0303
01fe
ENDCHAR
STARTCHAR 236
ENCODING 236
SWIDTH 96 0
DWIDTH 16 0
BBX 16 16 0 -2
BITMAP
0000
4ff2
4812
4ff2
4812
4ff2
4812
4ff2
4002
7e7e
0240
fe7f
2244
2244
6244
c244
ENDCHAR
STARTCHAR 237
ENCODING 237
SWIDTH 96 0
DWIDTH 16 0
BBX 16 16 0 -2
BITMAP
1010
1010
feff
1010
7c10
00fe
7c42
4446
4464
7c2c
0038
4410
6438
2e6c
38c6
e183
ENDCHAR
STARTCHAR 238
ENCODING 238
SWIDTH 96 0
DWIDTH 16 0
BBX 16 16 0 -2
BITMAP
0600
7c7e
4002
7e7e
4002
7ffe
0000
2108
2948
2528
2108
2948
252c
2105
39c7
e702
ENDCHAR
STARTCHAR 239
ENCODING 239
SWIDTH 96 0
DWIDTH 16 0
BBX 16 16 0 -2
BITMAP
0200
1ff8
1008
1ff8
1008
1ff8
1008
7ffe
4102
7ffe
4102
7ffe
0810
ffff
1010
6010
ENDCHAR
STARTCHAR 240
ENCODING 240
SWIDTH 96 0
DWIDTH 16 0
BBX 16 16 0 -2
BITMAP
0420
ffff
0420
0100
ffff
0440
7abe
2924
5932
0100
2004
3ffc
2004
3ffc
6004
c004
ENDCHAR
STARTCHAR 241
ENCODING 241
SWIDTH 96 0
DWIDTH 16 0
BBX 16 16 0 -2
BITMAP
0080
1080
10fc
1080
1080
ffff
2424
2424
2a54
2004
3ffc
2424
2424
2a54
2004
3ffc
ENDCHAR
STARTCHAR 242
ENCODING 242
SWIDTH 96 0
DWIDTH 16 0
BBX 16 16 0 -2
BITMAP
0840
0840
7f7f
2240
147e
ff82
007e
3e40
227e
3e40
227e
3e40
227e
2241
2263
263e
ENDCHAR
STARTCHAR 243
ENCODING 243
SWIDTH 96 0
DWIDTH 16 0
BBX 16 16 0 -2
BITMAP
0400
1ff0
f020
3ffc
2284
7efc
1280
fffe
1282
72aa
0292
72aa
1282
fffe
1201
73ff
ENDCHAR
STARTCHAR 244
ENCODING 244
SWIDTH 96 0
DWIDTH 16 0
BBX 16 16 0 -2
BITMAP
0100
07c0
1c78
f7cf
0000
7bde
4a52
7bde
0000
3ffc
2444
2444
3ffc
2444
2444
244c
ENDCHAR
STARTCHAR 245
ENCODING 245
SWIDTH 96 0
DWIDTH 16 0
BBX 16 16 0 -2
BITMAP
0e70
0c60
0c60
0c60
0c60
0c60
0c60
0c60
0c60
0c60
1860
1862
3062
3063
607f
803e
ENDCHAR
STARTCHAR 255
ENCODING 255
SWIDTH 96 0
DWIDTH 16 0
BBX 16 16 0 -2
BITMAP
0000
0000
0000
0000
0000
0000
0000
0000
0000
0000
0000
0000
0000
0000
0000
0000
ENDCHAR
ENDFONT
